
<svg xmlns="http://www.w3.org/2000/svg" width="876px" height="436px"><g><path styleName="opacity:0.999" d="M 52.5,73.5 C 69.8682,72.4151 79.7016,80.4151 82,97.5C 82.6667,176.833 82.6667,256.167 82,335.5C 78.4386,354.69 67.272,361.857 48.5,357C 40.4908,353.824 35.6575,347.99 34,339.5C 33.3333,257.5 33.3333,175.5 34,93.5C 36.5777,83.4253 42.7444,76.7586 52.5,73.5 Z"/></g><g><path styleName="opacity:0.996" d="M 419.5,73.5 C 430.66,71.8366 439.493,75.5032 446,84.5C 462.92,124.097 478.753,164.097 493.5,204.5C 488.931,226.285 476.264,233.118 455.5,225C 453.333,222.833 451.167,220.667 449,218.5C 433.667,181.167 418.333,143.833 403,106.5C 398.966,90.5682 404.466,79.5682 419.5,73.5 Z"/></g><g><path styleName="opacity:0.996" d="M 613.5,73.5 C 623.625,72.0409 632.125,75.0409 639,82.5C 656.348,122.547 672.515,163.047 687.5,204C 683.225,226.138 670.558,233.138 649.5,225C 645.182,221.685 642.015,217.519 640,212.5C 633.438,195.711 626.605,179.044 619.5,162.5C 593.758,224.898 567.925,287.231 542,349.5C 529.027,362.626 516.027,362.626 503,349.5C 497.88,341.182 497.214,332.515 501,323.5C 533.195,245.247 565.195,166.914 597,88.5C 600.567,81.3116 606.067,76.3116 613.5,73.5 Z"/></g><g><path styleName="opacity:0.996" d="M 807.5,72.5 C 828.645,71.4781 838.479,81.4781 837,102.5C 804.276,183.614 771.276,264.614 738,345.5C 730.137,357.01 719.637,360.51 706.5,356C 693.396,348.109 689.563,336.943 695,322.5C 727.276,244.28 759.276,165.947 791,87.5C 794.567,80.3116 800.067,75.3116 807.5,72.5 Z"/></g><g><path styleName="opacity:0.998" d="M 154.5,310.5 C 192.207,310.031 229.873,310.531 267.5,312C 283.774,320.581 287.607,333.081 279,349.5C 274.278,355.444 268.112,358.611 260.5,359C 223.8,359.961 187.133,359.628 150.5,358C 135.924,351.733 130.757,340.9 135,325.5C 139.085,317.235 145.585,312.235 154.5,310.5 Z"/></g></svg>
      
