<!-- <svg
  xmlns="http://www.w3.org/2000/svg"
  width="80.857"
  height="64.031"
  viewBox="0 0 80.857 64.031"
>
  <defs>
    <linearGradient id="logo" x2="100%" y2="100%">
      <stop stop-color="#8d5be9" offset="0%" />
      <stop stop-color="#8d5be9" offset="10%" />
      <stop stop-color="#ce81c7" offset="100%" />
    </linearGradient>
        <linearGradient id="logoLight" x2="100%" y2="100%">
      <stop stop-color="#ffc6d7" offset="0%" />
      <stop stop-color="#ffc6d7" offset="10%" />
      <stop stop-color="#ff80a6" offset="100%" />
    </linearGradient>
  </defs>
  <style>
    g {
      fill: url(#logo) #bb86fc;
    }
    .light {
      fill: url(#logoLight) #bb86fc;
    }
  </style>
  <g
    fill="url(#logo)"
    id="logo"
    data-name="logo"
    transform="translate(-1945.625 1681.732)"
  >
    <path
      d="M0,41.3a4,4,0,0,1-4-4V0A4,4,0,0,1,0-4,4,4,0,0,1,4,0V37.3A4,4,0,0,1,0,41.3Z"
      transform="translate(1949.625 -1659)"
    />
    <path
      d="M16.043,4H0A4,4,0,0,1-4,0,4,4,0,0,1,0-4H16.043a4,4,0,0,1,4,4A4,4,0,0,1,16.043,4Z"
      transform="translate(1965.267 -1621.701)"
    />
    <path
      d="M6.819,20.846a4,4,0,0,1-3.709-2.5L-3.708,1.5A4,4,0,0,1-1.5-3.708,4,4,0,0,1,3.708-1.5l6.818,16.845a4,4,0,0,1-3.706,5.5Z"
      transform="translate(1961.519 -1677.568)"
    />
    <path
      d="M6.819,20.846a4,4,0,0,1-3.709-2.5L-3.708,1.5A4,4,0,0,1-1.5-3.708,4,4,0,0,1,3.708-1.5l6.818,16.845a4,4,0,0,1-3.706,5.5Z"
      transform="translate(1992 -1677.568)"
    />
    <path
      d="M0,41.3A3.988,3.988,0,0,1-1.513,41,4,4,0,0,1-3.7,35.786l15.24-37.3A4,4,0,0,1,16.753-3.7a4,4,0,0,1,2.19,5.216L3.7,38.812A4,4,0,0,1,0,41.3Z"
      transform="translate(1976.76 -1677.568)"
    />
    <path
      d="M0,41.3A3.988,3.988,0,0,1-1.513,41,4,4,0,0,1-3.7,35.786l15.24-37.3A4,4,0,0,1,16.753-3.7a4,4,0,0,1,2.19,5.216L3.7,38.812A4,4,0,0,1,0,41.3Z"
      transform="translate(2007.24 -1677.731)"
    />
  </g>
</svg> -->


<svg xmlns="http://www.w3.org/2000/svg" viewBox="0 0 73.786 73.031" fill="url(#logo)" >
      <linearGradient id="logo2" x1="0%" y1="0%" x2="100%" y2="100%">
        <stop stopColor="var(--secondary)" offset="0%" />
        <stop stopColor="var(--secondary)" offset="10%" />
        <stop stopColor="var(--logo)" offset="100%" />
      </linearGradient>
    <svg fill="url(#logo2)">
  <g transform="translate(-2092.643 1708.232)">
    <g transform="translate(-2 -2)">
      <path d="M16.043,4H0A4,4,0,0,1-4,0,4,4,0,0,1,0-4H16.043a4,4,0,0,1,4,4A4,4,0,0,1,16.043,4Z" transform="translate(2114.284 -1637.201)"/>
      <g >
        <path d="M0,41.3a4,4,0,0,1-4-4V0A4,4,0,0,1,0-4,4,4,0,0,1,4,0V37.3A4,4,0,0,1,0,41.3Z" transform="translate(2098.643 -1674.5)"/>
        <path d="M6.819,20.846a4,4,0,0,1-3.709-2.5L-3.708,1.5A4,4,0,0,1-1.5-3.708,4,4,0,0,1,3.708-1.5l6.818,16.845a4,4,0,0,1-3.706,5.5Z" transform="translate(2103.466 -1702.068)"/>
        <path d="M6.819,20.846a4,4,0,0,1-3.709-2.5L-3.708,1.5A4,4,0,0,1-1.5-3.708,4,4,0,0,1,3.708-1.5l6.818,16.845a4,4,0,0,1-3.706,5.5Z" transform="translate(2133.947 -1702.068)"/>
        <path d="M0,41.3A3.988,3.988,0,0,1-1.513,41,4,4,0,0,1-3.7,35.786l15.24-37.3A4,4,0,0,1,16.753-3.7a4,4,0,0,1,2.19,5.216L3.7,38.812A4,4,0,0,1,0,41.3Z" transform="translate(2118.707 -1702.068)"/>
        <path d="M0,41.3A3.988,3.988,0,0,1-1.513,41,4,4,0,0,1-3.7,35.786l15.24-37.3A4,4,0,0,1,16.753-3.7a4,4,0,0,1,2.19,5.216L3.7,38.812A4,4,0,0,1,0,41.3Z" transform="translate(2149.188 -1702.231)"/>
      </g>
    </g>
  </g>
  </svg>
</svg>
